<?xml version="1.0" standalone="no"?>
<!DOCTYPE svg PUBLIC "-//W3C//DTD SVG 20010904//EN"
 "http://www.w3.org/TR/2001/REC-SVG-20010904/DTD/svg10.dtd">
<svg version="1.0" xmlns="http://www.w3.org/2000/svg"
 width="200.000000pt" height="200.000000pt" viewBox="0 0 200.000000 200.000000"
 preserveAspectRatio="xMidYMid meet">
<metadata>
Created by potrace 1.11, written by Peter Selinger 2001-2013
</metadata>
<g transform="translate(0.000000,200.000000) scale(0.100000,-0.100000)"
fill="#000000" stroke="none">
<path d="M905 1960 c-3 -5 -2 -10 4 -10 5 0 13 5 16 10 3 6 2 10 -4 10 -5 0
-13 -4 -16 -10z"/>
<path d="M959 1953 c-13 -16 -12 -17 4 -4 9 7 17 15 17 17 0 8 -8 3 -21 -13z"/>
<path d="M846 1910 c-20 -22 -36 -43 -36 -47 0 -3 18 13 40 37 22 24 38 45 36
47 -2 2 -20 -15 -40 -37z"/>
<path d="M1322 1862 l-23 -24 23 7 c43 13 51 20 36 31 -9 7 -20 3 -36 -14z"/>
<path d="M863 1805 c0 -22 2 -30 4 -17 2 12 2 30 0 40 -3 9 -5 -1 -4 -23z"/>
<path d="M956 1813 c4 -16 20 -41 37 -58 34 -35 47 -65 52 -118 2 -22 12 -45
22 -53 16 -12 16 -15 3 -24 -11 -7 -11 -10 -2 -10 7 0 10 -5 7 -10 -8 -12 -25
6 -104 109 -30 39 -56 71 -58 71 -2 0 6 -18 17 -40 11 -21 20 -41 20 -44 0
-10 -30 -14 -36 -4 -4 7 -3 8 4 4 7 -4 12 -2 12 4 0 6 -6 13 -14 16 -8 3 -21
22 -30 42 -17 41 -62 100 -52 69 3 -11 9 -31 12 -45 4 -15 12 -33 18 -41 8
-11 8 -13 -1 -7 -9 5 -13 0 -13 -13 0 -12 5 -21 11 -21 5 0 7 5 3 12 -4 7 -3
8 5 4 9 -6 9 -11 -1 -24 -8 -10 -9 -13 -1 -9 6 4 14 3 18 -3 3 -5 1 -10 -6
-10 -7 0 -4 -6 7 -14 30 -22 10 -29 -32 -11 -36 15 -37 15 -23 -3 8 -10 1 -4
-15 12 -16 17 -25 24 -22 16 4 -8 1 -7 -7 3 -21 25 -78 67 -91 67 -6 0 5 -14
24 -30 l35 -30 -48 20 c-27 11 -63 20 -80 19 l-32 -1 32 -8 c18 -4 45 -16 60
-26 l28 -19 -76 -5 c-42 -3 -83 -11 -91 -17 -8 -7 -19 -9 -23 -5 -5 4 -5 -1
-2 -11 4 -10 7 -21 7 -24 0 -3 8 5 18 16 14 19 23 21 59 15 24 -3 40 -10 38
-15 -3 -4 3 -12 12 -18 11 -7 14 -13 8 -18 -6 -5 -11 -37 -12 -73 l-2 -65 14
75 c17 93 39 116 100 105 22 -4 75 -9 117 -10 117 -3 147 -31 135 -131 -2 -24
-1 -46 3 -49 4 -2 13 -31 20 -64 l12 -59 24 21 c13 11 31 41 40 66 21 57 39
78 31 38 -5 -30 -1 -31 47 -11 18 7 19 6 4 -15 -9 -12 -34 -38 -57 -57 -22
-20 -41 -44 -41 -54 0 -17 5 -16 63 10 34 15 64 26 66 24 3 -2 -14 -22 -37
-45 -23 -22 -42 -44 -42 -49 0 -16 -32 -41 -46 -36 -8 3 -14 1 -14 -4 0 -19
-21 -10 -31 13 -7 18 -8 15 -4 -15 6 -38 6 -38 -21 -28 -30 12 -29 13 -38 -17
-7 -20 -4 -23 22 -23 29 0 29 -1 19 -25 -7 -14 -17 -25 -23 -25 -6 0 -16 -38
-23 -90 -14 -99 -16 -102 -90 -96 -102 8 65 -38 179 -49 108 -10 130 -15 130
-30 0 -24 -17 -26 -127 -14 -134 14 -274 43 -327 68 -63 29 -93 34 -100 15
-11 -28 -6 -42 14 -47 11 -3 18 -1 15 3 -12 19 59 -17 72 -37 8 -12 21 -19 29
-16 29 11 62 -7 73 -39 8 -21 8 -35 1 -42 -7 -7 -10 -3 -10 11 0 12 -12 31
-26 42 -28 22 -44 27 -44 13 0 -12 66 -82 78 -82 5 0 17 15 26 33 32 65 40 70
97 65 32 -3 55 -11 60 -21 5 -8 21 -18 36 -22 36 -10 107 -6 111 6 5 12 32 12
32 0 0 -5 -9 -19 -19 -32 -17 -21 -26 -23 -95 -22 -75 1 -77 0 -60 -18 25 -28
11 -34 -36 -15 -44 17 -107 21 -129 7 -16 -10 68 -31 124 -31 19 0 36 -4 39
-9 6 -10 -38 -21 -142 -36 -33 -5 -45 -12 -57 -34 -8 -16 -28 -40 -44 -54 -17
-14 -27 -27 -23 -29 4 -2 24 -24 44 -50 19 -26 38 -44 42 -40 4 3 4 0 1 -9 -3
-8 0 -23 8 -32 11 -16 15 -14 45 28 30 42 51 56 129 85 18 7 66 31 107 55 41
23 78 40 80 37 3 -3 -27 -39 -67 -81 -63 -66 -79 -91 -117 -180 -24 -57 -58
-125 -76 -151 -18 -26 -30 -51 -27 -54 4 -3 1 -6 -5 -6 -7 0 -12 -4 -12 -10 0
-22 27 -8 67 34 22 24 72 69 111 100 78 62 104 92 152 181 54 99 90 151 90
133 0 -9 -5 -29 -11 -45 -6 -15 -21 -81 -34 -145 -24 -113 -43 -170 -65 -183
-6 -4 -7 -12 -4 -18 4 -7 4 -9 -1 -5 -4 4 -21 -4 -37 -17 -22 -18 -42 -25 -76
-26 -26 0 -56 -4 -67 -9 -12 -6 16 -7 75 -3 63 4 126 15 186 34 50 16 112 32
137 35 55 8 203 -5 191 -16 -5 -4 -44 -15 -87 -24 -148 -30 -125 -35 166 -35
l277 -1 0 309 c0 265 -2 310 -15 315 -14 5 -33 40 -50 91 l-7 20 -8 -20 c-6
-17 -8 -15 -15 14 -5 24 -10 30 -15 20 -7 -11 -13 -10 -29 5 -11 10 -23 27
-26 37 -4 11 -15 19 -25 19 -23 0 -30 19 -30 78 0 40 -2 44 -13 28 -19 -26
-57 -15 -153 41 -44 26 -80 47 -82 49 -2 1 2 21 7 45 21 96 22 121 1 126 -11
3 -20 7 -20 10 0 31 37 166 52 191 11 18 18 42 15 52 -3 11 1 23 9 28 10 6 12
15 5 38 -5 17 -5 55 0 87 8 50 6 63 -12 100 -43 85 -55 96 -97 90 -20 -3 -48
-12 -62 -19 -23 -13 -19 -13 36 -8 59 6 62 5 82 -24 17 -24 19 -31 8 -35 -7
-3 -17 -2 -22 3 -13 13 -54 15 -104 5 -25 -5 -49 -8 -54 -7 -4 2 -17 0 -27 -3
-18 -6 -18 -7 1 -27 11 -12 17 -24 14 -27 -3 -3 -11 1 -17 9 -16 21 -44 24
-50 5 -7 -17 9 -30 18 -15 3 5 10 10 16 10 13 0 11 -27 -3 -36 -6 -4 -8 -3 -4
4 4 7 -3 10 -21 8 -15 -2 -29 -9 -31 -16 -3 -8 3 -10 19 -6 23 7 23 6 4 -5
-11 -7 -24 -18 -28 -26 -4 -7 -13 -13 -19 -13 -7 0 -7 4 0 13 6 6 10 14 10 17
-2 30 29 92 64 127 44 45 40 58 -6 22 -35 -27 -33 -12 4 38 29 39 26 47 -10
33 -3 -1 -9 -2 -14 -1 -5 1 -4 -4 3 -13 9 -11 9 -16 0 -22 -8 -5 -9 -3 -4 6 6
10 4 12 -9 7 -10 -4 -15 -3 -11 3 3 6 -1 10 -10 10 -8 0 -20 11 -25 25 -11 30
-25 34 -17 5 6 -23 -8 -37 -16 -16 -3 8 -16 20 -29 27 -17 9 -14 2 15 -29 29
-33 37 -50 37 -80 l-1 -37 -40 45 -41 45 26 -51 c32 -65 34 -134 3 -134 -11 0
-17 -3 -14 -7 4 -3 2 -12 -4 -19 -8 -9 -5 -11 10 -7 28 7 27 -6 -1 -16 -29
-11 -51 8 -31 27 7 7 10 18 7 24 -4 6 -10 5 -15 -3 -5 -9 -6 0 -3 22 3 19 1
53 -5 74 -11 41 -6 59 9 35 6 -8 10 -10 10 -5 0 6 -12 21 -25 34 -14 13 -25
27 -25 32 0 4 -10 13 -21 20 -17 9 -20 8 -13 -3 8 -12 16 -98 9 -98 -2 0 -26
32 -55 70 -29 39 -54 70 -56 70 -2 0 -1 -12 2 -27z m321 -84 c-6 -10 -13 -15
-15 -9 -6 17 7 42 18 35 6 -4 5 -13 -3 -26z m250 -45 c-3 -3 4 -15 15 -26 11
-11 17 -22 13 -26 -5 -5 -52 -9 -138 -11 -12 -1 -16 -6 -11 -13 4 -7 4 -10 -1
-6 -4 4 -16 3 -26 -3 -17 -9 -18 -7 -8 17 5 15 17 34 27 41 15 12 14 13 -6 3
-13 -7 -26 -9 -30 -6 -3 3 1 6 9 7 8 0 6 4 -6 9 -14 6 -8 8 23 5 23 -3 42 -1
42 3 0 4 23 8 51 9 28 1 49 -1 46 -3z m54 -21 c13 -16 12 -17 -3 -4 -10 7 -18
15 -18 17 0 8 8 3 21 -13z m-511 -58 c0 -5 -5 -3 -10 5 -5 8 -10 20 -10 25 0
6 5 3 10 -5 5 -8 10 -19 10 -25z m-109 -6 c8 -15 8 -19 0 -15 -6 4 -11 2 -11
-4 0 -6 -5 -8 -10 -5 -8 5 -8 11 -1 19 6 7 8 16 4 19 -3 4 -3 7 0 7 3 0 11
-10 18 -21z m610 -44 c-5 -21 -3 -37 7 -53 8 -12 12 -25 8 -29 -3 -3 -6 -1 -6
5 0 7 -4 12 -10 12 -5 0 -7 -7 -3 -16 5 -14 2 -13 -16 2 -12 11 -26 20 -31 20
-6 1 -16 2 -22 3 -9 1 -9 4 2 10 8 6 18 7 22 5 4 -3 8 0 8 5 0 6 -4 11 -9 11
-6 0 -9 9 -8 19 0 11 5 17 9 15 5 -3 5 -10 2 -16 -4 -7 -2 -8 4 -4 8 5 12 -2
12 -18 0 -14 4 -26 8 -26 13 0 9 43 -5 58 -16 16 -17 32 -3 32 6 0 10 -4 10
-10 0 -5 4 -10 10 -10 5 0 7 8 3 18 -4 12 -3 14 5 7 7 -7 9 -21 3 -40z m-76
15 c3 -5 2 -10 -4 -10 -5 0 -13 5 -16 10 -3 6 -2 10 4 10 5 0 13 -4 16 -10z
m-10 -52 c-11 -7 -21 -6 -28 2 -9 8 -8 10 6 5 10 -4 17 -2 17 5 0 6 5 8 11 4
8 -5 6 -10 -6 -16z m-135 8 c0 -2 -7 -7 -16 -10 -8 -3 -12 -2 -9 4 6 10 25 14
25 6z m100 -22 c0 -2 -12 -4 -27 -4 -21 0 -24 3 -14 9 13 8 41 5 41 -5z m50
-76 c0 -19 2 -20 10 -8 15 22 32 -7 19 -32 -6 -10 -7 -23 -3 -29 3 -6 3 -30
-1 -55 -6 -39 -8 -43 -21 -29 -18 17 -30 19 -39 6 -3 -5 5 -17 17 -25 19 -13
20 -16 5 -16 -10 0 -20 7 -24 16 -5 12 -7 13 -14 2 -6 -9 -8 -6 -6 9 0 12 5
19 11 16 5 -4 7 15 3 49 -9 74 0 118 24 118 13 0 19 -7 19 -22z m50 -52 c0 -3
-4 -8 -10 -11 -5 -3 -10 -1 -10 4 0 6 5 11 10 11 6 0 10 -2 10 -4z m-84 -164
c1 -12 6 -28 13 -35 9 -11 8 -17 -3 -26 -10 -8 -16 -9 -21 -1 -3 5 -1 10 4 10
6 0 11 5 11 10 0 6 -7 10 -15 10 -10 0 -15 10 -15 31 0 35 24 36 26 1z m35 -5
c-10 -9 -11 -8 -5 6 3 10 9 15 12 12 3 -3 0 -11 -7 -18z m-201 -114 c-1 -20
-31 -44 -66 -52 -21 -5 -31 -9 -20 -10 12 -1 16 -6 12 -17 -5 -12 -2 -15 13
-11 10 2 25 1 32 -3 8 -6 1 -13 -23 -23 -20 -9 -41 -25 -48 -36 -6 -12 -17
-21 -25 -21 -8 0 -20 -8 -27 -18 -7 -10 -19 -22 -27 -27 -11 -6 -13 -2 -8 23
9 43 -2 92 -20 92 -28 0 -6 25 28 31 19 4 30 7 24 9 -5 1 1 6 15 10 l25 8 -27
1 c-30 1 -35 10 -16 29 15 15 54 16 63 2 9 -15 42 -12 49 5 5 15 46 22 46 8z
m204 -216 c4 -34 11 -113 15 -175 8 -98 12 -118 36 -151 14 -22 40 -72 56
-112 16 -40 34 -78 40 -85 7 -9 5 -11 -8 -10 -21 1 -69 57 -89 101 -13 29 -13
29 -14 5 0 -35 -11 -70 -20 -70 -5 0 -9 53 -9 118 0 76 -9 168 -25 261 -19
112 -22 148 -13 163 19 29 24 22 31 -45z"/>
<path d="M1473 1633 c9 -2 23 -2 30 0 6 3 -1 5 -18 5 -16 0 -22 -2 -12 -5z"/>
<path d="M1501 1388 c0 -11 -9 -18 -23 -18 -21 0 -21 -1 -5 -17 21 -22 41 -6
34 28 -3 15 -5 17 -6 7z"/>
<path d="M1501 1316 c-7 -8 -8 -17 -3 -20 6 -3 12 3 15 14 6 24 4 25 -12 6z"/>
<path d="M731 1795 c-1 -11 3 -35 8 -53 9 -30 8 -31 -10 -21 -11 6 -24 20 -29
32 -7 17 -9 18 -9 5 -1 -11 -12 -21 -28 -25 -26 -6 -25 -7 16 -15 29 -5 56
-18 76 -38 39 -37 53 -39 29 -3 -10 16 -26 53 -35 83 -10 30 -18 46 -18 35z"/>
<path d="M1505 1720 c-18 -8 -17 -9 8 -9 15 -1 27 -6 27 -13 0 -6 2 -9 5 -6 7
6 -5 38 -14 37 -3 0 -15 -4 -26 -9z"/>
<path d="M1131 1684 c0 -11 3 -14 6 -6 3 7 2 16 -1 19 -3 4 -6 -2 -5 -13z"/>
<path d="M1145 1650 c-3 -11 -2 -27 3 -37 8 -13 10 -9 10 20 0 42 -4 46 -13
17z"/>
<path d="M905 1455 c3 -10 9 -38 12 -62 5 -41 32 -84 28 -45 -3 29 -24 96 -36
112 -9 12 -10 11 -4 -5z"/>
<path d="M700 1414 c-6 -16 -13 -36 -16 -44 -16 -42 -22 -70 -14 -70 10 0 53
130 45 138 -2 3 -9 -8 -15 -24z"/>
<path d="M641 1354 c0 -11 3 -14 6 -6 3 7 2 16 -1 19 -3 4 -6 -2 -5 -13z"/>
<path d="M520 1341 c0 -6 4 -13 10 -16 6 -3 7 1 4 9 -7 18 -14 21 -14 7z"/>
<path d="M617 1295 c-23 -49 -21 -57 4 -16 11 18 19 37 17 43 -2 5 -11 -7 -21
-27z"/>
<path d="M978 1305 c-3 -15 0 -42 8 -59 10 -24 13 -27 14 -11 1 11 3 30 4 43
2 12 -3 30 -9 39 -11 14 -13 13 -17 -12z"/>
<path d="M901 1277 c2 -1 15 -11 29 -22 l25 -20 -19 23 c-11 12 -24 22 -29 22
-6 0 -8 -1 -6 -3z"/>
<path d="M780 1212 c0 -5 11 -14 25 -20 14 -6 25 -16 25 -22 0 -11 -9 -9 -108
15 -53 13 -55 11 -29 -23 6 -8 13 -9 16 -3 10 15 63 0 68 -20 3 -11 10 -19 15
-19 5 0 6 5 2 11 -4 8 -1 8 12 1 11 -5 24 -7 31 -5 7 2 22 -1 35 -8 13 -7 32
-14 43 -16 11 -2 28 -14 38 -26 10 -12 16 -17 13 -11 -3 7 1 17 9 24 7 6 11
18 8 26 -3 8 0 14 6 14 6 0 11 7 11 15 0 19 -10 19 -38 -1 -32 -22 -72 -10
-117 36 -36 37 -65 51 -65 32z"/>
<path d="M903 1159 c14 -8 22 -8 30 0 8 8 3 11 -18 11 -26 -1 -28 -2 -12 -11z"/>
<path d="M578 1084 c-4 -35 6 -56 15 -32 3 7 6 3 6 -8 1 -12 8 -24 16 -28 12
-4 14 0 9 22 -7 28 -32 82 -38 82 -2 0 -6 -16 -8 -36z"/>
<path d="M827 1062 c5 -12 -17 -11 -64 4 -22 6 -14 -13 11 -29 16 -11 25 -29
30 -58 8 -52 56 -96 56 -51 0 26 38 82 55 82 8 0 15 5 15 10 0 6 -7 10 -16 10
-14 0 -14 3 -3 16 11 14 15 13 31 -8 l19 -23 -13 28 c-8 19 -16 26 -27 22 -9
-4 -29 -9 -46 -12 -27 -6 -29 -5 -16 10 12 15 11 17 -12 15 -16 -1 -23 -7 -20
-16z"/>
<path d="M576 959 c4 -83 13 -87 13 -5 -1 36 -4 66 -8 66 -5 0 -7 -27 -5 -61z"/>
<path d="M663 925 c-9 -24 0 -25 26 -4 23 19 23 19 2 19 -12 0 -24 -7 -28 -15z"/>
<path d="M7 773 c-4 -3 -7 -179 -7 -390 l0 -383 40 0 c38 0 42 2 59 44 22 50
54 66 135 66 44 0 171 -22 258 -45 l27 -7 -20 42 c-20 40 -20 45 -5 168 13
100 13 128 3 134 -20 13 -37 9 -37 -9 0 -10 -11 -42 -25 -71 -21 -45 -32 -56
-72 -74 -52 -23 -155 -79 -190 -104 l-23 -16 25 73 c14 40 37 90 52 111 14 21
23 41 20 44 -3 3 12 28 33 56 l38 50 -53 47 c-53 45 -53 47 -54 105 -1 54 -4
61 -40 97 -21 22 -47 39 -58 39 -11 0 -28 7 -39 15 -20 15 -56 20 -67 8z"/>
<path d="M930 709 c0 -5 5 -7 10 -4 6 3 10 8 10 11 0 2 -4 4 -10 4 -5 0 -10
-5 -10 -11z"/>
<path d="M365 430 c3 -5 11 -10 16 -10 6 0 7 5 4 10 -3 6 -11 10 -16 10 -6 0
-7 -4 -4 -10z"/>
<path d="M620 316 c0 -87 8 -104 75 -156 56 -45 105 -111 105 -143 0 -11 8
-17 25 -17 20 0 26 7 35 39 9 35 7 45 -26 112 l-35 74 5 -67 c3 -38 2 -68 -2
-68 -11 0 -75 115 -96 172 -10 26 -18 63 -19 83 -2 32 -4 35 -34 35 l-33 0 0
-64z"/>
<path d="M704 15 c11 -8 26 -15 33 -15 22 0 14 8 -19 19 -30 10 -31 9 -14 -4z"/>
</g>
</svg>
